<mxfile host="app.diagrams.net" agent="Mozilla/5.0 (Windows NT 10.0; Win64; x64) AppleWebKit/537.36 (KHTML, like Gecko) Chrome/131.0.0.0 Safari/537.36" version="24.9.3">
  <diagram name="หน้า-1" id="RtxEn0fQpVPNVnzz2nxm">
    <mxGraphModel dx="1050" dy="530" grid="1" gridSize="10" guides="1" tooltips="1" connect="1" arrows="1" fold="1" page="1" pageScale="1" pageWidth="827" pageHeight="1169" math="0" shadow="0">
      <root>
        <mxCell id="0" />
        <mxCell id="1" parent="0" />
        <mxCell id="tTzdTrGTarNLr9dChiUb-3" value="" style="edgeStyle=orthogonalEdgeStyle;rounded=0;orthogonalLoop=1;jettySize=auto;html=1;" parent="1" source="tTzdTrGTarNLr9dChiUb-1" target="tTzdTrGTarNLr9dChiUb-2" edge="1">
          <mxGeometry relative="1" as="geometry" />
        </mxCell>
        <mxCell id="tTzdTrGTarNLr9dChiUb-1" value="Start" style="ellipse;whiteSpace=wrap;html=1;" parent="1" vertex="1">
          <mxGeometry x="354" y="10" width="120" height="80" as="geometry" />
        </mxCell>
        <mxCell id="tTzdTrGTarNLr9dChiUb-5" value="" style="edgeStyle=orthogonalEdgeStyle;rounded=0;orthogonalLoop=1;jettySize=auto;html=1;" parent="1" source="tTzdTrGTarNLr9dChiUb-2" target="tTzdTrGTarNLr9dChiUb-4" edge="1">
          <mxGeometry relative="1" as="geometry" />
        </mxCell>
        <mxCell id="tTzdTrGTarNLr9dChiUb-2" value="Input score" style="shape=parallelogram;perimeter=parallelogramPerimeter;whiteSpace=wrap;html=1;fixedSize=1;" parent="1" vertex="1">
          <mxGeometry x="354" y="180" width="120" height="60" as="geometry" />
        </mxCell>
        <mxCell id="tTzdTrGTarNLr9dChiUb-7" value="F" style="edgeStyle=orthogonalEdgeStyle;rounded=0;orthogonalLoop=1;jettySize=auto;html=1;" parent="1" source="tTzdTrGTarNLr9dChiUb-4" target="tTzdTrGTarNLr9dChiUb-6" edge="1">
          <mxGeometry relative="1" as="geometry" />
        </mxCell>
        <mxCell id="tTzdTrGTarNLr9dChiUb-23" value="T" style="edgeStyle=orthogonalEdgeStyle;rounded=0;orthogonalLoop=1;jettySize=auto;html=1;" parent="1" source="tTzdTrGTarNLr9dChiUb-4" target="tTzdTrGTarNLr9dChiUb-22" edge="1">
          <mxGeometry relative="1" as="geometry" />
        </mxCell>
        <mxCell id="tTzdTrGTarNLr9dChiUb-4" value="score = 0-49" style="rhombus;whiteSpace=wrap;html=1;" parent="1" vertex="1">
          <mxGeometry x="374" y="310" width="80" height="80" as="geometry" />
        </mxCell>
        <mxCell id="tTzdTrGTarNLr9dChiUb-9" value="F" style="edgeStyle=orthogonalEdgeStyle;rounded=0;orthogonalLoop=1;jettySize=auto;html=1;" parent="1" source="tTzdTrGTarNLr9dChiUb-6" target="tTzdTrGTarNLr9dChiUb-8" edge="1">
          <mxGeometry relative="1" as="geometry" />
        </mxCell>
        <mxCell id="tTzdTrGTarNLr9dChiUb-25" value="T" style="edgeStyle=orthogonalEdgeStyle;rounded=0;orthogonalLoop=1;jettySize=auto;html=1;" parent="1" source="tTzdTrGTarNLr9dChiUb-6" target="tTzdTrGTarNLr9dChiUb-24" edge="1">
          <mxGeometry relative="1" as="geometry" />
        </mxCell>
        <mxCell id="tTzdTrGTarNLr9dChiUb-6" value="score = 50-54" style="rhombus;whiteSpace=wrap;html=1;" parent="1" vertex="1">
          <mxGeometry x="534" y="310" width="80" height="80" as="geometry" />
        </mxCell>
        <mxCell id="tTzdTrGTarNLr9dChiUb-11" value="F" style="edgeStyle=orthogonalEdgeStyle;rounded=0;orthogonalLoop=1;jettySize=auto;html=1;" parent="1" source="tTzdTrGTarNLr9dChiUb-8" target="tTzdTrGTarNLr9dChiUb-10" edge="1">
          <mxGeometry relative="1" as="geometry" />
        </mxCell>
        <mxCell id="tTzdTrGTarNLr9dChiUb-29" value="T" style="edgeStyle=orthogonalEdgeStyle;rounded=0;orthogonalLoop=1;jettySize=auto;html=1;" parent="1" source="tTzdTrGTarNLr9dChiUb-8" target="tTzdTrGTarNLr9dChiUb-28" edge="1">
          <mxGeometry relative="1" as="geometry" />
        </mxCell>
        <mxCell id="tTzdTrGTarNLr9dChiUb-8" value="score = 55-59" style="rhombus;whiteSpace=wrap;html=1;" parent="1" vertex="1">
          <mxGeometry x="694" y="310" width="80" height="80" as="geometry" />
        </mxCell>
        <mxCell id="tTzdTrGTarNLr9dChiUb-13" value="F" style="edgeStyle=orthogonalEdgeStyle;rounded=0;orthogonalLoop=1;jettySize=auto;html=1;" parent="1" source="tTzdTrGTarNLr9dChiUb-10" target="tTzdTrGTarNLr9dChiUb-12" edge="1">
          <mxGeometry relative="1" as="geometry" />
        </mxCell>
        <mxCell id="tTzdTrGTarNLr9dChiUb-31" value="T" style="edgeStyle=orthogonalEdgeStyle;rounded=0;orthogonalLoop=1;jettySize=auto;html=1;" parent="1" source="tTzdTrGTarNLr9dChiUb-10" target="tTzdTrGTarNLr9dChiUb-30" edge="1">
          <mxGeometry relative="1" as="geometry" />
        </mxCell>
        <mxCell id="tTzdTrGTarNLr9dChiUb-10" value="score = 60-64" style="rhombus;whiteSpace=wrap;html=1;" parent="1" vertex="1">
          <mxGeometry x="854" y="310" width="80" height="80" as="geometry" />
        </mxCell>
        <mxCell id="tTzdTrGTarNLr9dChiUb-15" value="F" style="edgeStyle=orthogonalEdgeStyle;rounded=0;orthogonalLoop=1;jettySize=auto;html=1;" parent="1" source="tTzdTrGTarNLr9dChiUb-12" target="tTzdTrGTarNLr9dChiUb-14" edge="1">
          <mxGeometry relative="1" as="geometry" />
        </mxCell>
        <mxCell id="tTzdTrGTarNLr9dChiUb-33" value="T" style="edgeStyle=orthogonalEdgeStyle;rounded=0;orthogonalLoop=1;jettySize=auto;html=1;" parent="1" source="tTzdTrGTarNLr9dChiUb-12" target="tTzdTrGTarNLr9dChiUb-32" edge="1">
          <mxGeometry relative="1" as="geometry" />
        </mxCell>
        <mxCell id="tTzdTrGTarNLr9dChiUb-12" value="score = 65-69" style="rhombus;whiteSpace=wrap;html=1;" parent="1" vertex="1">
          <mxGeometry x="1014" y="310" width="80" height="80" as="geometry" />
        </mxCell>
        <mxCell id="tTzdTrGTarNLr9dChiUb-17" value="F" style="edgeStyle=orthogonalEdgeStyle;rounded=0;orthogonalLoop=1;jettySize=auto;html=1;" parent="1" source="tTzdTrGTarNLr9dChiUb-14" target="tTzdTrGTarNLr9dChiUb-16" edge="1">
          <mxGeometry relative="1" as="geometry" />
        </mxCell>
        <mxCell id="tTzdTrGTarNLr9dChiUb-35" value="T" style="edgeStyle=orthogonalEdgeStyle;rounded=0;orthogonalLoop=1;jettySize=auto;html=1;" parent="1" source="tTzdTrGTarNLr9dChiUb-14" target="tTzdTrGTarNLr9dChiUb-34" edge="1">
          <mxGeometry relative="1" as="geometry" />
        </mxCell>
        <mxCell id="tTzdTrGTarNLr9dChiUb-14" value="score = 70-74" style="rhombus;whiteSpace=wrap;html=1;" parent="1" vertex="1">
          <mxGeometry x="1174" y="310" width="80" height="80" as="geometry" />
        </mxCell>
        <mxCell id="tTzdTrGTarNLr9dChiUb-19" value="F" style="edgeStyle=orthogonalEdgeStyle;rounded=0;orthogonalLoop=1;jettySize=auto;html=1;" parent="1" source="tTzdTrGTarNLr9dChiUb-16" target="tTzdTrGTarNLr9dChiUb-18" edge="1">
          <mxGeometry relative="1" as="geometry" />
        </mxCell>
        <mxCell id="tTzdTrGTarNLr9dChiUb-37" value="T" style="edgeStyle=orthogonalEdgeStyle;rounded=0;orthogonalLoop=1;jettySize=auto;html=1;" parent="1" source="tTzdTrGTarNLr9dChiUb-16" target="tTzdTrGTarNLr9dChiUb-36" edge="1">
          <mxGeometry relative="1" as="geometry" />
        </mxCell>
        <mxCell id="tTzdTrGTarNLr9dChiUb-16" value="score = 75-79" style="rhombus;whiteSpace=wrap;html=1;" parent="1" vertex="1">
          <mxGeometry x="1334" y="310" width="80" height="80" as="geometry" />
        </mxCell>
        <mxCell id="tTzdTrGTarNLr9dChiUb-21" value="F" style="edgeStyle=orthogonalEdgeStyle;rounded=0;orthogonalLoop=1;jettySize=auto;html=1;" parent="1" source="tTzdTrGTarNLr9dChiUb-18" target="tTzdTrGTarNLr9dChiUb-20" edge="1">
          <mxGeometry relative="1" as="geometry" />
        </mxCell>
        <mxCell id="tTzdTrGTarNLr9dChiUb-39" value="T" style="edgeStyle=orthogonalEdgeStyle;rounded=0;orthogonalLoop=1;jettySize=auto;html=1;" parent="1" source="tTzdTrGTarNLr9dChiUb-18" target="tTzdTrGTarNLr9dChiUb-38" edge="1">
          <mxGeometry relative="1" as="geometry" />
        </mxCell>
        <mxCell id="tTzdTrGTarNLr9dChiUb-18" value="score = 80-100" style="rhombus;whiteSpace=wrap;html=1;" parent="1" vertex="1">
          <mxGeometry x="1494" y="310" width="86" height="80" as="geometry" />
        </mxCell>
        <mxCell id="tTzdTrGTarNLr9dChiUb-67" style="edgeStyle=orthogonalEdgeStyle;rounded=0;orthogonalLoop=1;jettySize=auto;html=1;exitX=0.5;exitY=1;exitDx=0;exitDy=0;entryX=1;entryY=0.5;entryDx=0;entryDy=0;" parent="1" source="tTzdTrGTarNLr9dChiUb-20" target="tTzdTrGTarNLr9dChiUb-48" edge="1">
          <mxGeometry relative="1" as="geometry" />
        </mxCell>
        <mxCell id="tTzdTrGTarNLr9dChiUb-20" value="Output Error" style="shape=parallelogram;perimeter=parallelogramPerimeter;whiteSpace=wrap;html=1;fixedSize=1;" parent="1" vertex="1">
          <mxGeometry x="1643" y="320" width="120" height="60" as="geometry" />
        </mxCell>
        <mxCell id="tTzdTrGTarNLr9dChiUb-51" style="edgeStyle=orthogonalEdgeStyle;rounded=0;orthogonalLoop=1;jettySize=auto;html=1;exitX=0.5;exitY=1;exitDx=0;exitDy=0;entryX=0;entryY=0.5;entryDx=0;entryDy=0;" parent="1" source="tTzdTrGTarNLr9dChiUb-22" target="tTzdTrGTarNLr9dChiUb-40" edge="1">
          <mxGeometry relative="1" as="geometry" />
        </mxCell>
        <mxCell id="tTzdTrGTarNLr9dChiUb-22" value="Output F !" style="shape=parallelogram;perimeter=parallelogramPerimeter;whiteSpace=wrap;html=1;fixedSize=1;" parent="1" vertex="1">
          <mxGeometry x="354" y="480" width="120" height="60" as="geometry" />
        </mxCell>
        <mxCell id="tTzdTrGTarNLr9dChiUb-52" style="edgeStyle=orthogonalEdgeStyle;rounded=0;orthogonalLoop=1;jettySize=auto;html=1;exitX=0.5;exitY=1;exitDx=0;exitDy=0;entryX=1;entryY=0.5;entryDx=0;entryDy=0;" parent="1" source="tTzdTrGTarNLr9dChiUb-24" target="tTzdTrGTarNLr9dChiUb-40" edge="1">
          <mxGeometry relative="1" as="geometry" />
        </mxCell>
        <mxCell id="tTzdTrGTarNLr9dChiUb-24" value="Output D !" style="shape=parallelogram;perimeter=parallelogramPerimeter;whiteSpace=wrap;html=1;fixedSize=1;" parent="1" vertex="1">
          <mxGeometry x="514" y="480" width="120" height="60" as="geometry" />
        </mxCell>
        <mxCell id="tTzdTrGTarNLr9dChiUb-53" style="edgeStyle=orthogonalEdgeStyle;rounded=0;orthogonalLoop=1;jettySize=auto;html=1;exitX=0.5;exitY=1;exitDx=0;exitDy=0;entryX=0;entryY=0.5;entryDx=0;entryDy=0;" parent="1" source="tTzdTrGTarNLr9dChiUb-28" target="tTzdTrGTarNLr9dChiUb-41" edge="1">
          <mxGeometry relative="1" as="geometry" />
        </mxCell>
        <mxCell id="tTzdTrGTarNLr9dChiUb-28" value="Output D+ !" style="shape=parallelogram;perimeter=parallelogramPerimeter;whiteSpace=wrap;html=1;fixedSize=1;" parent="1" vertex="1">
          <mxGeometry x="674" y="480" width="120" height="60" as="geometry" />
        </mxCell>
        <mxCell id="tTzdTrGTarNLr9dChiUb-54" style="edgeStyle=orthogonalEdgeStyle;rounded=0;orthogonalLoop=1;jettySize=auto;html=1;exitX=0.5;exitY=1;exitDx=0;exitDy=0;entryX=1;entryY=0.5;entryDx=0;entryDy=0;" parent="1" source="tTzdTrGTarNLr9dChiUb-30" target="tTzdTrGTarNLr9dChiUb-41" edge="1">
          <mxGeometry relative="1" as="geometry" />
        </mxCell>
        <mxCell id="tTzdTrGTarNLr9dChiUb-30" value="Output C !" style="shape=parallelogram;perimeter=parallelogramPerimeter;whiteSpace=wrap;html=1;fixedSize=1;" parent="1" vertex="1">
          <mxGeometry x="834" y="480" width="120" height="60" as="geometry" />
        </mxCell>
        <mxCell id="tTzdTrGTarNLr9dChiUb-55" style="edgeStyle=orthogonalEdgeStyle;rounded=0;orthogonalLoop=1;jettySize=auto;html=1;exitX=0.5;exitY=1;exitDx=0;exitDy=0;entryX=0;entryY=0.5;entryDx=0;entryDy=0;" parent="1" source="tTzdTrGTarNLr9dChiUb-32" target="tTzdTrGTarNLr9dChiUb-42" edge="1">
          <mxGeometry relative="1" as="geometry" />
        </mxCell>
        <mxCell id="tTzdTrGTarNLr9dChiUb-32" value="Output C+ !" style="shape=parallelogram;perimeter=parallelogramPerimeter;whiteSpace=wrap;html=1;fixedSize=1;" parent="1" vertex="1">
          <mxGeometry x="994" y="480" width="120" height="60" as="geometry" />
        </mxCell>
        <mxCell id="tTzdTrGTarNLr9dChiUb-56" style="edgeStyle=orthogonalEdgeStyle;rounded=0;orthogonalLoop=1;jettySize=auto;html=1;exitX=0.5;exitY=1;exitDx=0;exitDy=0;entryX=1;entryY=0.5;entryDx=0;entryDy=0;" parent="1" source="tTzdTrGTarNLr9dChiUb-34" target="tTzdTrGTarNLr9dChiUb-42" edge="1">
          <mxGeometry relative="1" as="geometry" />
        </mxCell>
        <mxCell id="tTzdTrGTarNLr9dChiUb-34" value="Output B !" style="shape=parallelogram;perimeter=parallelogramPerimeter;whiteSpace=wrap;html=1;fixedSize=1;" parent="1" vertex="1">
          <mxGeometry x="1154" y="480" width="120" height="60" as="geometry" />
        </mxCell>
        <mxCell id="tTzdTrGTarNLr9dChiUb-57" style="edgeStyle=orthogonalEdgeStyle;rounded=0;orthogonalLoop=1;jettySize=auto;html=1;exitX=0.5;exitY=1;exitDx=0;exitDy=0;entryX=0;entryY=0.5;entryDx=0;entryDy=0;" parent="1" source="tTzdTrGTarNLr9dChiUb-36" target="tTzdTrGTarNLr9dChiUb-43" edge="1">
          <mxGeometry relative="1" as="geometry" />
        </mxCell>
        <mxCell id="tTzdTrGTarNLr9dChiUb-36" value="Output B+ !" style="shape=parallelogram;perimeter=parallelogramPerimeter;whiteSpace=wrap;html=1;fixedSize=1;" parent="1" vertex="1">
          <mxGeometry x="1314" y="480" width="120" height="60" as="geometry" />
        </mxCell>
        <mxCell id="tTzdTrGTarNLr9dChiUb-58" style="edgeStyle=orthogonalEdgeStyle;rounded=0;orthogonalLoop=1;jettySize=auto;html=1;exitX=0.5;exitY=1;exitDx=0;exitDy=0;entryX=1;entryY=0.5;entryDx=0;entryDy=0;" parent="1" source="tTzdTrGTarNLr9dChiUb-38" target="tTzdTrGTarNLr9dChiUb-43" edge="1">
          <mxGeometry relative="1" as="geometry" />
        </mxCell>
        <mxCell id="tTzdTrGTarNLr9dChiUb-38" value="Output A !" style="shape=parallelogram;perimeter=parallelogramPerimeter;whiteSpace=wrap;html=1;fixedSize=1;" parent="1" vertex="1">
          <mxGeometry x="1477" y="480" width="120" height="60" as="geometry" />
        </mxCell>
        <mxCell id="tTzdTrGTarNLr9dChiUb-59" style="edgeStyle=orthogonalEdgeStyle;rounded=0;orthogonalLoop=1;jettySize=auto;html=1;exitX=0.5;exitY=1;exitDx=0;exitDy=0;entryX=0;entryY=0.5;entryDx=0;entryDy=0;" parent="1" source="tTzdTrGTarNLr9dChiUb-40" target="tTzdTrGTarNLr9dChiUb-44" edge="1">
          <mxGeometry relative="1" as="geometry" />
        </mxCell>
        <mxCell id="tTzdTrGTarNLr9dChiUb-40" value="" style="ellipse;whiteSpace=wrap;html=1;aspect=fixed;" parent="1" vertex="1">
          <mxGeometry x="490" y="560" width="10" height="10" as="geometry" />
        </mxCell>
        <mxCell id="tTzdTrGTarNLr9dChiUb-60" style="edgeStyle=orthogonalEdgeStyle;rounded=0;orthogonalLoop=1;jettySize=auto;html=1;exitX=0.5;exitY=1;exitDx=0;exitDy=0;entryX=1;entryY=0.5;entryDx=0;entryDy=0;" parent="1" source="tTzdTrGTarNLr9dChiUb-41" target="tTzdTrGTarNLr9dChiUb-44" edge="1">
          <mxGeometry relative="1" as="geometry" />
        </mxCell>
        <mxCell id="tTzdTrGTarNLr9dChiUb-41" value="" style="ellipse;whiteSpace=wrap;html=1;aspect=fixed;" parent="1" vertex="1">
          <mxGeometry x="810" y="560" width="10" height="10" as="geometry" />
        </mxCell>
        <mxCell id="tTzdTrGTarNLr9dChiUb-61" style="edgeStyle=orthogonalEdgeStyle;rounded=0;orthogonalLoop=1;jettySize=auto;html=1;exitX=0.5;exitY=1;exitDx=0;exitDy=0;entryX=0;entryY=0.5;entryDx=0;entryDy=0;" parent="1" source="tTzdTrGTarNLr9dChiUb-42" target="tTzdTrGTarNLr9dChiUb-45" edge="1">
          <mxGeometry relative="1" as="geometry" />
        </mxCell>
        <mxCell id="tTzdTrGTarNLr9dChiUb-42" value="" style="ellipse;whiteSpace=wrap;html=1;aspect=fixed;" parent="1" vertex="1">
          <mxGeometry x="1130" y="560" width="10" height="10" as="geometry" />
        </mxCell>
        <mxCell id="tTzdTrGTarNLr9dChiUb-62" style="edgeStyle=orthogonalEdgeStyle;rounded=0;orthogonalLoop=1;jettySize=auto;html=1;exitX=0.5;exitY=1;exitDx=0;exitDy=0;entryX=1;entryY=0.5;entryDx=0;entryDy=0;" parent="1" source="tTzdTrGTarNLr9dChiUb-43" target="tTzdTrGTarNLr9dChiUb-45" edge="1">
          <mxGeometry relative="1" as="geometry" />
        </mxCell>
        <mxCell id="tTzdTrGTarNLr9dChiUb-43" value="" style="ellipse;whiteSpace=wrap;html=1;aspect=fixed;" parent="1" vertex="1">
          <mxGeometry x="1450" y="560" width="10" height="10" as="geometry" />
        </mxCell>
        <mxCell id="tTzdTrGTarNLr9dChiUb-64" style="edgeStyle=orthogonalEdgeStyle;rounded=0;orthogonalLoop=1;jettySize=auto;html=1;exitX=0.5;exitY=1;exitDx=0;exitDy=0;entryX=0;entryY=0.5;entryDx=0;entryDy=0;" parent="1" source="tTzdTrGTarNLr9dChiUb-44" target="tTzdTrGTarNLr9dChiUb-46" edge="1">
          <mxGeometry relative="1" as="geometry" />
        </mxCell>
        <mxCell id="tTzdTrGTarNLr9dChiUb-44" value="" style="ellipse;whiteSpace=wrap;html=1;aspect=fixed;" parent="1" vertex="1">
          <mxGeometry x="650" y="600" width="10" height="10" as="geometry" />
        </mxCell>
        <mxCell id="tTzdTrGTarNLr9dChiUb-65" style="edgeStyle=orthogonalEdgeStyle;rounded=0;orthogonalLoop=1;jettySize=auto;html=1;exitX=0.5;exitY=1;exitDx=0;exitDy=0;entryX=1;entryY=0.5;entryDx=0;entryDy=0;" parent="1" source="tTzdTrGTarNLr9dChiUb-45" target="tTzdTrGTarNLr9dChiUb-46" edge="1">
          <mxGeometry relative="1" as="geometry" />
        </mxCell>
        <mxCell id="tTzdTrGTarNLr9dChiUb-45" value="" style="ellipse;whiteSpace=wrap;html=1;aspect=fixed;" parent="1" vertex="1">
          <mxGeometry x="1290" y="600" width="10" height="10" as="geometry" />
        </mxCell>
        <mxCell id="tTzdTrGTarNLr9dChiUb-66" style="edgeStyle=orthogonalEdgeStyle;rounded=0;orthogonalLoop=1;jettySize=auto;html=1;exitX=0.5;exitY=1;exitDx=0;exitDy=0;entryX=0.5;entryY=0;entryDx=0;entryDy=0;" parent="1" source="tTzdTrGTarNLr9dChiUb-46" target="tTzdTrGTarNLr9dChiUb-48" edge="1">
          <mxGeometry relative="1" as="geometry" />
        </mxCell>
        <mxCell id="tTzdTrGTarNLr9dChiUb-46" value="" style="ellipse;whiteSpace=wrap;html=1;aspect=fixed;" parent="1" vertex="1">
          <mxGeometry x="970" y="640" width="10" height="10" as="geometry" />
        </mxCell>
        <mxCell id="tTzdTrGTarNLr9dChiUb-69" value="" style="edgeStyle=orthogonalEdgeStyle;rounded=0;orthogonalLoop=1;jettySize=auto;html=1;" parent="1" source="tTzdTrGTarNLr9dChiUb-48" target="tTzdTrGTarNLr9dChiUb-68" edge="1">
          <mxGeometry relative="1" as="geometry" />
        </mxCell>
        <mxCell id="tTzdTrGTarNLr9dChiUb-48" value="" style="ellipse;whiteSpace=wrap;html=1;aspect=fixed;" parent="1" vertex="1">
          <mxGeometry x="970" y="710" width="10" height="10" as="geometry" />
        </mxCell>
        <mxCell id="tTzdTrGTarNLr9dChiUb-68" value="End" style="ellipse;whiteSpace=wrap;html=1;" parent="1" vertex="1">
          <mxGeometry x="915" y="800" width="120" height="80" as="geometry" />
        </mxCell>
      </root>
    </mxGraphModel>
  </diagram>
</mxfile>
